<svg width="133" height="131" viewBox="0 0 133 131" fill="none" xmlns="http://www.w3.org/2000/svg">
<path d="M59.6302 130.027C38.043 124.859 5.29945 84.7089 0.458872 65.2289C13.157 26.661 61.2119 8.29787 76.7336 0.0749295C100.379 14.4457 121.892 21.9339 132.622 33.9562C135.357 88.7678 81.6688 135.306 59.6302 130.027Z" fill="var(--icon-fill-color, #85A374)" fill-opacity="var(--icon-fill-opacity, 0.5)"/>
<path d="M76.718 0.647555C88.4686 7.77042 99.6994 13.2141 109.287 18.3384C118.892 23.4721 126.831 28.2809 132.13 34.1576C133.426 61.3257 120.787 86.4689 105.044 104.191C97.1576 113.069 88.5088 120.067 80.4758 124.512C72.4208 128.97 65.0712 130.815 59.7451 129.539C54.4489 128.271 48.4209 124.842 42.2632 120.065C36.1133 115.294 29.8682 109.206 24.1394 102.665C18.411 96.1244 13.2058 89.1392 9.13388 82.5806C5.09721 76.0786 2.1924 70.0237 0.978977 65.2496C7.30407 46.19 22.3491 32.0783 37.8156 21.6888C53.1673 11.3765 68.8187 4.79616 76.718 0.647555Z" stroke="var(--icon-stroke-color, #85A374)" stroke-opacity="var(--icon-stroke-opacity, 0.5)" stroke-linecap="round" stroke-linejoin="round"/>
</svg>
