<svg width="120" height="138" viewBox="0 0 120 138" fill="none" xmlns="http://www.w3.org/2000/svg">
<path d="M50.6426 137.39C23.4399 133.774 8.82803 114.913 0.627441 108.686C0.627441 67.9064 11.6963 55.84 20.8395 42.572C33.5909 26.6119 43.2972 10.5063 80.6172 0.591797C90.2178 10.8366 110.953 23.0207 118.804 51.5007C122.178 83.9235 106.248 109.868 50.6426 137.39Z" fill="var(--icon-fill-color, #85A374)" fill-opacity="var(--icon-fill-opacity, 0.5)"/>
<path d="M80.4604 1.15234C90.2493 11.4612 110.548 23.5002 118.31 51.5918C119.976 67.6775 116.859 82.1273 106.441 95.9824C96.0149 109.848 78.2525 123.151 50.5581 136.873C23.8405 133.26 9.46842 114.893 1.12842 108.44C1.15053 88.236 3.90408 75.1578 7.76904 65.498C11.6509 55.7963 16.6557 49.5219 21.2437 42.8652C27.6356 34.8633 33.2064 26.9119 41.8354 19.6982C50.4119 12.5287 62.0248 6.08429 80.4604 1.15234Z" stroke="var(--icon-stroke-color, #85A374)" stroke-opacity="var(--icon-stroke-opacity, 0.5)" stroke-linecap="round" stroke-linejoin="round"/>
</svg>
