<svg width="151" height="142" viewBox="0 0 151 142" fill="none" xmlns="http://www.w3.org/2000/svg">
<path d="M141.826 133.919C145.474 115.436 149.285 48.2656 150.439 13.7108C121.686 2.46701 48.0454 -10.0454 27.3593 15.1044C16.2525 45.5072 3.78165 83.2153 0.609375 102.502C74.4681 144.501 105.1 148.364 141.826 133.919Z" fill="#85A374" fill-opacity="0.5"/>
<path d="M51.3779 3.18457C61.5811 1.00916 73.5761 0.565302 85.8457 1.25879C110.201 2.63541 135.544 8.48708 149.927 14.0498C149.345 31.3135 148.111 56.5516 146.569 79.8086C145.031 103.015 143.186 124.207 141.387 133.553C123.197 140.67 106.514 143.254 85.2432 138.888C63.901 134.506 37.919 123.123 1.16016 102.239C4.41101 82.9214 16.7626 45.5733 27.7988 15.3574C32.8721 9.23296 41.2017 5.35429 51.3779 3.18457Z" stroke="#85A374" stroke-opacity="0.5" stroke-linecap="round" stroke-linejoin="round"/>
</svg>
