<svg width="125" height="138" viewBox="0 0 125 138" fill="none" xmlns="http://www.w3.org/2000/svg">
<path d="M118.824 15.7148C130.059 53.9812 122.668 103.933 108.109 137.661C69.2383 133.485 49.6656 112.544 5.23858 100.989C-18.8715 33.1639 62.6635 2.87613 72.6052 0.324219C95.4654 1.36642 107.423 6.34366 118.824 15.7148Z" fill="var(--icon-fill-color, #85A374)" fill-opacity="var(--icon-fill-opacity, 0.5)"/>
<path d="M72.6606 0.827148C95.3044 1.86953 107.134 6.78837 118.387 16.0049C129.481 53.9833 122.204 103.519 107.794 137.12C88.629 135.002 74.1678 128.79 58.9702 121.64C43.7353 114.471 27.7557 106.361 5.62256 100.574C-0.274968 83.8265 0.319425 69.4164 4.6665 57.1729C9.03847 44.8592 17.2189 34.702 26.4829 26.5547C44.9368 10.3253 67.6044 2.14654 72.6606 0.827148Z" stroke="var(--icon-stroke-color, #85A374)" stroke-opacity="var(--icon-stroke-opacity, 0.5)" stroke-linecap="round" stroke-linejoin="round"/>
</svg>
