<svg width="137" height="134" viewBox="0 0 137 134" fill="none" xmlns="http://www.w3.org/2000/svg">
<path d="M41.8683 131.18C29.0337 128.663 6.2602 110.333 0.194756 104.629C-0.997391 73.4662 4.39568 49.2653 16.7951 31.7657C20.6722 26.2941 25.2343 21.4776 30.4943 17.308C68.8113 -6.99893 97.7572 -4.33639 127.089 18.3899C135.067 24.5714 139.499 44.252 133.238 86.3395C107.217 124.296 71.6077 140.62 41.8683 131.18Z" fill="var(--icon-fill-color, #85A374)" fill-opacity="var(--icon-fill-opacity, 0.5)"/>
<path d="M30.7852 17.7148C49.8812 5.60525 66.592 0.247008 82.1465 0.710938C97.7029 1.175 112.173 7.46563 126.782 18.7852C130.61 21.7511 133.689 28.0476 135.007 38.96C136.32 49.832 135.871 65.1887 132.76 86.1514C106.809 123.945 71.4386 140.042 42.0195 130.704L41.9648 130.689L41.3691 130.563C38.3552 129.874 34.799 128.35 31.0312 126.331C27.0193 124.182 22.7973 121.488 18.7793 118.689C10.8698 113.181 3.78196 107.29 0.686523 104.403C-0.471608 73.3992 4.91904 49.3916 17.2031 32.0547C21.048 26.6285 25.5706 21.8514 30.7852 17.7148Z" stroke="var(--icon-stroke-color, #85A374)" stroke-opacity="var(--icon-stroke-opacity, 0.5)" stroke-linecap="round" stroke-linejoin="round"/>
</svg>
