<svg role="img" viewBox="0 0 24 24" xmlns="http://www.w3.org/2000/svg" id="Zenodo--Streamline-Simple-Icons">
  <title>Zenodo</title>
  <path d="M23.82698 11.163a2.2419 2.2419 0 0 0 -0.46698 -0.68697 2.1499 2.1499 0 0 0 -1.52393 -0.62697 2.10991 2.10991 0 0 0 -1.20695 0.36499 2.2469 2.2469 0 0 0 -0.49498 0.45398c-0.06 0.075 -0.125 0.17499 -0.163 0.23599a2.68689 2.68689 0 0 0 -0.20498 0.46398c0.006 -0.27 0.046 -0.67197 0.20499 -0.89797V8.52212a0.42698 0.42698 0 0 0 -0.137 -0.32199 0.44298 0.44298 0 0 0 -0.31698 -0.132 0.43998 0.43998 0 0 0 -0.32299 0.132 0.43998 0.43998 0 0 0 -0.13 0.32199v1.73292a2.3699 2.3699 0 0 0 -0.59197 -0.29898 2.1239 2.1239 0 0 0 -1.49994 0.06 2.1599 2.1599 0 0 0 -1.15295 1.14695l-0.024 0.06a2.2419 2.2419 0 0 0 -0.48997 -0.74697 2.1529 2.1529 0 0 0 -1.52394 -0.62698 2.10991 2.10991 0 0 0 -0.84296 0.167 2.2299 2.2299 0 0 0 -0.68697 0.45998 2.10591 2.10591 0 0 0 -0.46598 0.68697l-0.023 0.056 -0.023 -0.056a2.1549 2.1549 0 0 0 -1.98992 -1.31395c-0.30098 0 -0.58197 0.056 -0.84196 0.167a2.2299 2.2299 0 0 0 -0.68597 0.45998c-0.2 0.19599 -0.35499 0.42398 -0.46698 0.68697l-0.02 0.053 -0.022 -0.053a2.2429 2.2429 0 0 0 -0.46698 -0.68698 2.1479 2.1479 0 0 0 -1.52293 -0.62697 2.10991 2.10991 0 0 0 -0.84197 0.167 2.2289 2.2289 0 0 0 -0.64197 0.41798v-0.072a0.46298 0.46298 0 0 0 -0.46198 -0.46298H0.53398a0.46298 0.46298 0 0 0 0 0.92596h2.54889L0.091 14.84985a0.46198 0.46198 0 0 0 -0.091 0.27499v0.30198c0 0.256 0.207 0.46298 0.46298 0.46298h3.44985a0.46198 0.46198 0 0 0 0.46198 -0.42998 2.1689 2.1689 0 0 0 1.34695 0.47198c0.44598 0 0.84396 -0.12 1.19494 -0.35998 0.283 -0.192 0.50698 -0.43098 0.66998 -0.71997v0.62597c0 0.127 0.043 0.235 0.13 0.32199a0.43598 0.43598 0 0 0 0.32398 0.132c0.12 0 0.22399 -0.044 0.31598 -0.132a0.42698 0.42698 0 0 0 0.138 -0.32199V13.8579h-0.002l0.002 -0.003H7.36069a0.43998 0.43998 0 0 0 -0.41799 0.28699l-0.074 0.152a1.23395 1.23395 0 0 1 -0.45997 0.53197 1.23395 1.23395 0 0 1 -0.68697 0.197c-0.168 0 -0.32999 -0.031 -0.48498 -0.095a1.17495 1.17495 0 0 1 -0.39999 -0.27 1.38194 1.38194 0 0 1 -0.26998 -0.39998 1.16495 1.16495 0 0 1 -0.1 -0.47698v-0.40598h4.02783v-1.37494a1.23695 1.23695 0 0 1 0.36498 -0.87796 1.23995 1.23995 0 0 1 0.88996 -0.36499c0.167 0 0.32899 0.032 0.48398 0.095 0.155 0.065 0.289 0.154 0.39999 0.27 0.112 0.11499 0.19999 0.24898 0.26898 0.39997 0.067 0.151 0.102 0.311 0.102 0.47798v3.47686c0 0.12799 0.043 0.23599 0.13 0.32298a0.43798 0.43798 0 0 0 0.32398 0.132c0.12 0 0.224 -0.044 0.31599 -0.132a0.43098 0.43098 0 0 0 0.137 -0.32299v-0.62297a2.1439 2.1439 0 0 0 1.86791 1.07795c0.29399 0 0.57398 -0.056 0.83697 -0.168 0.26199 -0.11099 0.49298 -0.26398 0.69297 -0.45997a2.11191 2.11191 0 0 0 0.48398 -0.73297l0.018 0.047c0.111 0.26199 0.26699 0.48998 0.46598 0.68697 0.19999 0.195 0.42798 0.34799 0.68697 0.45998 0.25799 0.11 0.53997 0.167 0.84296 0.167a2.1469 2.1469 0 0 0 1.52294 -0.62698c0.19499 -0.196 0.35098 -0.42498 0.46698 -0.68697l0.024 -0.06 0.024 0.06c0.115 0.26199 0.26998 0.48998 0.46598 0.68697a2.1439 2.1439 0 0 0 1.52393 0.62697c0.29398 0 0.57397 -0.056 0.83696 -0.168a2.2199 2.2199 0 0 0 0.69297 -0.45997 2.11691 2.11691 0 0 0 0.63498 -1.52194v-1.78192a2.07991 2.07991 0 0 0 -0.173 -0.83696zM1.15995 14.96485l2.4199 -3.25886c-0.012 0.096 -0.02 0.194 -0.02 0.29399v1.77992c0 0.296 0.058 0.57398 0.174 0.83797 0.05399 0.123 0.11799 0.23899 0.18998 0.34698zm5.81775 -2.49989H4.4678v-0.46498a1.24195 1.24195 0 0 1 0.76498 -1.14695c0.15199 -0.064 0.31498 -0.096 0.48998 -0.096 0.16799 0 0.32998 0.032 0.48398 0.095 0.15599 0.065 0.28998 0.154 0.39998 0.26999 0.112 0.115 0.19999 0.24899 0.26999 0.39998 0.068 0.151 0.1 0.31099 0.1 0.47798zm8.05766 1.31594a1.24895 1.24895 0 0 1 -1.25395 1.24295c-0.168 0 -0.32898 -0.032 -0.48498 -0.096a1.16795 1.16795 0 0 1 -0.39998 -0.26999 1.37594 1.37594 0 0 1 -0.26899 -0.39998 1.15895 1.15895 0 0 1 -0.1 -0.47698v-1.78092a1.23995 1.23995 0 0 1 1.25495 -1.24295c0.16599 0 0.32798 0.032 0.48198 0.095 0.15599 0.065 0.28998 0.154 0.39998 0.26999 0.112 0.115 0.201 0.24899 0.26999 0.39998 0.067 0.152 0.101 0.31099 0.101 0.47798zm4.02783 0c0 0.167 -0.033 0.32599 -0.1 0.47798a1.37994 1.37994 0 0 1 -0.27 0.39999 1.15995 1.15995 0 0 1 -0.39998 0.26998 1.25995 1.25995 0 0 1 -0.48397 0.094 1.23195 1.23195 0 0 1 -0.88997 -0.36398 1.24195 1.24195 0 0 1 -0.36598 -0.87796v-1.78093c0 -0.16699 0.035 -0.32598 0.102 -0.47798a1.39994 1.39994 0 0 1 0.26998 -0.39998 1.15995 1.15995 0 0 1 0.39999 -0.26999 1.26995 1.26995 0 0 1 0.48398 -0.095 1.24995 1.24995 0 0 1 0.88996 0.36499 1.24995 1.24995 0 0 1 0.36398 0.87796zm4.02782 0a1.22395 1.22395 0 0 1 -0.36398 0.87797c-0.116 0.116 -0.24999 0.20499 -0.39998 0.26998a1.24995 1.24995 0 0 1 -0.48998 0.094 1.26995 1.26995 0 0 1 -0.48498 -0.095 1.16895 1.16895 0 0 1 -0.39999 -0.26998 1.37994 1.37994 0 0 1 -0.26998 -0.39999 1.15695 1.15695 0 0 1 -0.1 -0.47698v-1.78092a1.23995 1.23995 0 0 1 1.25494 -1.24295c0.167 0 0.32799 0.032 0.48298 0.095 0.156 0.065 0.29 0.154 0.39999 0.27 0.112 0.11499 0.20099 0.24898 0.26998 0.39997 0.067 0.152 0.1 0.311 0.1 0.47798v1.77993z" fill="currentColor" stroke-width="1"></path>
</svg>