<svg width="132" height="120" viewBox="0 0 132 120" fill="none" xmlns="http://www.w3.org/2000/svg">
<path d="M126.339 92.2771C77.2879 121.891 33.1769 121.964 12.3862 117.907C4.0655 80.7321 -1.23018 38.8226 1.46943 16.086C44.5301 -4.13243 99.151 -0.524633 117.464 2.72976C140.954 31.5481 128.78 73.9803 126.339 92.2771Z" fill="#85A374" fill-opacity="0.5"/>
<path d="M68.7754 1.10449C89.9218 -0.103754 108.015 1.57908 117.191 3.18945C128.732 17.442 131.536 35.0508 131.126 51.4365C130.718 67.7599 127.137 82.7283 125.877 91.9707C77.2728 121.241 33.5841 121.443 12.8027 117.477C4.55876 80.5398 -0.671799 39.0645 1.93457 16.4209C23.3249 6.43424 47.5681 2.31623 68.7754 1.10449Z" stroke="#85A374" stroke-opacity="0.5" stroke-linecap="round" stroke-linejoin="round"/>
</svg>
